<svg width="151" height="64" viewBox="0 0 151 64" fill="none" xmlns="http://www.w3.org/2000/svg">
<path d="M104.375 38.3989V60.6096C104.375 65.1264 113.72 64.7499 113.72 60.6096V39.9046C113.72 32.375 128.671 32.7514 128.671 39.9046V60.6096C128.671 63.997 138.762 63.997 138.762 60.6096V38.3989C138.762 19.5755 104.375 20.329 104.375 38.3989Z" fill="#3EB86F"/>
<path d="M65.5031 53.4567C49.8048 53.4567 41.9556 36.8928 41.5818 36.5163C36.7228 28.6104 29.9951 37.2688 32.9851 41.7867C42.2546 59.8564 58.5261 64.1229 65.5031 63.9973C88.3031 63.5872 95.4048 50.0685 99.1425 41.7867C102.506 31.6223 91.6671 31.2459 90.5458 36.5163C85.1635 50.6709 71.608 53.7077 65.5031 53.4567Z" fill="#FECD08"/>
<path d="M26.2574 7.90551C13.1006 7.90551 10.3098 19.701 10.559 25.5988H4.20493C-1.40165 25.5988 -1.40164 34.6337 4.20493 34.6337H10.559V59.856C10.559 64.3735 19.1557 64.3735 19.1557 59.856V34.6337H25.5098C31.4902 34.6337 31.4902 25.5988 25.5098 25.5988H19.1557C19.7538 20.479 23.3184 18.2483 26.2574 17.6933C32.2377 16.5639 34.8541 8.28196 26.2574 7.90551Z" fill="#EE2A5F"/>
<rect x="133.903" width="8.97049" height="24.8459" rx="4.48524" fill="#3EB86F"/>
<rect x="150.349" y="8.28197" width="9.03487" height="23.9213" rx="4.51744" transform="rotate(90 150.349 8.28197)" fill="#3EB86F"/>
</svg>
